<svg xmlns="http://www.w3.org/2000/svg" xml:space="preserve" viewBox="0 0 1000 1000">
    <path fill="#002d30" d="M222.48 25.71c-48.41 8.62-93.87 32.73-130.52 69.18-47.42 47.62-72.31 106.61-72.31 171.67 0 65.26 24.5 122.29 73.29 170.5 11.95 11.95 28.02 25.67 35.47 30.77 61.14 39.78 128.56 51.54 194.4 33.9 84.85-22.73 154.03-91.91 175.98-176.18 17.44-66.83 5.88-133.06-33.9-194.21-5.09-7.45-18.81-23.52-30.77-35.47-38.02-38.61-80.94-61.54-131.1-70.35-21.35-3.53-59.18-3.53-80.54.19zm84.27 42.72c80.15 17.25 140.9 79.76 154.82 159.33 3.72 21.56 3.72 56.64 0 76.43-16.27 86.03-81.33 148.74-167.36 161.28-22.93 3.53-63.3 1.57-83.48-3.92-37.43-10.19-68.2-28.02-94.26-55.26-39-40.57-58.4-94.26-55.07-152.47 2.94-50.76 23.13-96.61 58.01-131.5 30.38-30.18 68.98-49.58 113.08-56.64 15.86-2.34 57.6-.97 74.26 2.75z"/>
    <path fill="#002d30" d="M252.27 112.72c-5.29 4.12-9.21 14.31-9.21 23.91 0 4.11-1.17 5.49-5.88 6.47-8.23 1.76-27.24 14.7-36.06 24.5-12.35 13.72-17.83 27.83-17.83 45.07.2 11.37 1.18 16.85 4.7 24.1 9.99 20.77 36.06 38.61 72.51 49.58 39.39 11.95 50.56 23.91 42.33 45.07-2.35 6.27-5.68 10.39-11.37 14.11-7.25 4.7-9.6 5.29-25.67 5.29-20.19 0-30.77-3.72-52.13-18.81-16.46-11.56-29.59-10.78-36.25 2.16-5.29 10.39-3.92 17.44 5.49 26.26 9.02 8.82 33.32 22.15 49.58 27.44l9.99 3.33 1.18 9.99c3.72 30.77 42.33 28.42 42.53-2.74 0-6.07.78-6.86 13.72-12.93 25.67-11.95 44.29-36.45 46.45-60.75 1.57-17.83-3.13-31.16-15.87-44.88-13.92-14.89-27.24-22.73-57.03-33.12-40.76-14.31-48.41-19.6-48.41-34.69 0-10.19 4.12-19.01 11.17-24.5 10.78-8.62 36.45-10.39 49.58-3.53 3.14 1.57 9.8 7.25 14.7 12.35 8.23 8.43 10 9.41 17.83 9.41 6.47 0 9.99-1.18 13.72-4.7 5.49-5.1 8.23-15.09 6.07-21.75-3.33-10.78-25.08-29-41.94-35.47-8.82-3.33-9.02-3.53-10.39-13.72-.98-8.43-2.55-11.56-7.25-15.87-7.64-6.87-18.81-7.46-26.26-1.58zM598.94 56.87c-31.16 5.88-77.61 24.89-84.27 34.69-3.92 5.68-3.92 17.05 0 22.73 3.33 4.7 12.54 10.19 17.44 10.19 1.57 0 11.17-3.92 21.16-8.62 86.81-41.35 175.79-25.48 244.38 43.9 52.72 52.91 73.88 120.72 59.58 190.09-1.76 8.04-3.72 15.68-4.31 17.05-.78 1.37-8.43-13.52-16.85-32.92-17.83-40.57-22.14-46.05-35.47-44.29-9.8 1.37-18.62 10.39-18.62 19.21 0 3.53 10.39 29.59 24.3 61.14 13.33 30.38 24.89 57.22 25.48 59.58 2.15 6.86 12.35 14.31 19.79 14.31 10.19 0 127.77-52.13 131.89-58.6 5.29-7.84 3.92-19.21-3.13-26.06-9.21-9.21-15.68-8.23-54.09 9.01-18.22 8.23-33.71 14.5-34.1 14.11-.39-.59.2-3.92 1.37-7.45 4.51-13.91 8.04-42.33 8.04-64.28 0-106.61-66.04-202.05-166.97-241.05-26.65-10.39-48.01-14.11-84.86-14.89-25.48-.4-39.59.19-50.76 2.15zM725.15 490.95c-92.5 9.41-173.83 72.31-206.95 160.11-10.19 26.65-12.74 41.15-13.91 74.08-1.17 35.47 1.37 53.89 11.37 84.27 23.71 70.94 84.66 131.89 156.19 155.8 47.23 15.87 102.49 15.87 149.72 0 58.6-19.6 110.53-63.89 140.51-119.94 36.25-67.02 37.23-149.13 2.74-218.12-45.27-89.95-143.84-146-239.67-136.2zm73.1 46.84c72.31 19.01 124.64 70.94 144.04 143.06 4.31 16.66 5.1 22.73 5.1 52.13.2 37.63-2.74 53.5-14.89 82.5-43.7 103.47-166.38 148.74-273.77 101.32-40.56-18.03-79.56-58.2-97.59-101.12-12.35-29.2-15.29-45.07-15.09-82.7 0-29.59.59-35.47 5.29-52.71 20.19-75.06 79.96-130.91 156-145.22 21.53-4.12 70.53-2.55 90.91 2.74z"/>
    <path fill="#002d30" d="M735.73 601.48c-31.16 9.8-61.73 39.98-75.45 74.47l-3.33 8.04-13.92 1.18c-16.07 1.18-22.73 5.88-24.89 16.85-2.55 13.52 6.47 24.1 20.38 24.1 4.12 0 8.04.39 8.43.79.59.59.59 4.51.2 8.82-.79 7.05-1.37 8.03-5.49 8.03-12.54 0-24.3 10.39-24.3 21.56 0 6.66 5.49 15.29 11.76 18.62 3.13 1.57 10.58 2.94 16.66 2.94 7.84 0 10.78.79 10.78 2.74 0 1.57 4.12 10.97 9.21 20.97 7.25 14.5 12.15 21.36 24.89 34.1 17.25 17.05 29.4 24.69 47.23 29.4 22.14 5.68 41.35 2.94 63.89-9.01 24.69-13.13 50.76-43.31 50.76-58.79 0-13.92-13.52-23.13-27.44-18.62-5.29 1.57-9.01 5.49-16.07 16.46-19.4 29.2-45.07 38.02-74.66 25.48-10.58-4.7-26.06-20.38-32.53-33.31l-4.11-8.43 39.98-.98c36.84-.98 40.56-1.37 45.66-5.1 7.64-5.68 10.19-16.26 5.88-25.48-5.49-11.37-10.98-12.54-58.21-12.54h-41.15v-17.64h44.68c39.2 0 45.07-.39 48.6-3.53 10.19-8.23 11.37-20.77 2.94-30.18l-5.68-6.47-40.37-.59c-22.14-.39-40.37-1.37-40.37-2.15 0-3.72 12.15-19.79 21.36-28.03 25.87-23.32 61.14-19.6 82.31 8.62 14.31 19.21 16.66 21.16 26.06 21.16 18.62-.2 26.85-17.83 16.07-34.29-14.31-21.75-39.39-41.35-61.14-48.01-14.32-4.51-36.27-5.1-48.62-1.18zM90.2 569.34c-74.47 33.12-74.08 32.92-77.41 39.2-3.72 7.25-3.72 12.35 0 19.6 3.14 6.08 11.96 11.76 18.03 11.76 1.96 0 19.4-7.05 38.8-15.48 19.4-8.62 35.47-15.48 35.67-15.29.2.2-1.57 7.45-3.72 16.07-5.68 22.14-7.05 73.49-2.74 98.38 9.41 54.87 35.27 103.28 75.45 142.28 37.43 36.25 81.92 59.18 133.46 68.98 26.65 5.09 67.02 4.7 93.67-.79 35.86-7.45 74.67-23.91 81.13-34.49 8.03-13.13 1.57-26.65-15.09-31.16-2.55-.78-9.8 1.57-18.42 5.68-35.08 16.85-66.44 24.5-99.95 24.5-52.72 0-101.12-20.38-143.06-59.97-48.8-46.25-73.49-104.26-70.16-164.22 1.18-19.6 6.27-47.43 9.02-48.99.78-.59 8.43 14.89 17.05 34.49 12.54 29 16.46 36.26 21.36 39.2 8.43 5.09 17.25 4.51 24.3-1.57 11.76-9.8 11.17-11.56-18.81-80.35-29-66.83-30.96-69.57-44.68-69.18-3.14-.01-27.44 9.79-53.9 21.35z"/>
</svg>