<?xml version="1.0" standalone="no"?>
<!DOCTYPE svg PUBLIC "-//W3C//DTD SVG 20010904//EN"
 "http://www.w3.org/TR/2001/REC-SVG-20010904/DTD/svg10.dtd">
<svg version="1.0" xmlns="http://www.w3.org/2000/svg"
 width="512.000000pt" height="512.000000pt" viewBox="0 0 512.000000 512.000000"
 preserveAspectRatio="xMidYMid meet">
<metadata>
Created by potrace 1.14, written by Peter Selinger 2001-2017
</metadata>
<g transform="translate(0.000000,512.000000) scale(0.100000,-0.100000)"
fill="#000000" stroke="none">
<path d="M3980 4740 c-25 -11 -324 -130 -665 -266 -341 -135 -633 -252 -650
-259 -16 -7 -124 -50 -240 -95 -115 -45 -219 -86 -230 -91 -18 -8 -533 -213
-1669 -665 -387 -154 -453 -184 -487 -216 l-39 -38 0 -1336 c0 -1228 1 -1338
17 -1364 9 -16 27 -33 40 -39 30 -14 4269 -16 4306 -2 13 5 32 22 42 37 16 26
18 70 18 750 0 523 3 726 11 732 6 5 27 14 46 21 19 8 49 19 65 26 17 8 84 34
150 60 66 25 129 50 140 55 11 5 67 28 125 51 58 23 115 50 127 62 48 44 45
59 -102 428 -75 189 -202 508 -282 709 -80 201 -151 379 -158 395 -7 17 -28
71 -48 120 -325 819 -359 901 -385 922 -33 28 -72 29 -132 3z m105 -435 c48
-121 93 -233 100 -250 8 -16 102 -253 209 -525 108 -272 201 -504 206 -515 12
-26 281 -708 283 -718 2 -7 -388 -170 -439 -183 l-21 -5 0 496 c-1 477 -1 498
-20 524 -11 14 -34 30 -51 35 -30 10 -36 21 -133 265 -109 273 -133 326 -156
350 -11 10 -42 15 -108 17 -110 4 -127 7 -210 34 -84 28 -176 88 -253 166 -52
53 -69 64 -96 64 -18 0 -112 -31 -207 -69 -96 -38 -318 -126 -494 -196 -176
-69 -333 -133 -350 -140 -16 -7 -115 -47 -220 -88 -104 -41 -332 -132 -506
-201 -174 -69 -321 -126 -327 -126 -6 0 -28 -15 -48 -32 l-37 -33 -304 -1
c-166 0 -302 1 -300 2 2 2 162 67 357 144 195 77 364 145 375 150 11 5 74 30
140 56 66 26 139 55 162 65 23 11 45 19 48 19 4 0 21 6 38 14 18 8 154 62 302
120 149 59 279 111 290 116 11 5 198 80 415 166 452 179 1035 411 1065 423 39
17 200 79 202 78 0 -1 40 -101 88 -222z m-689 -496 c102 -107 321 -202 489
-212 l50 -3 82 -205 c46 -112 83 -207 83 -210 0 -3 -543 -6 -1207 -7 -664 0
-1201 3 -1193 8 8 4 182 74 385 154 204 81 379 151 390 156 52 24 871 349 881
349 5 1 23 -13 40 -30z m820 -842 c4 -4 5 -844 4 -2154 l0 -253 -2010 0 -2010
0 0 1204 0 1205 23 3 c34 5 3988 0 3993 -5z"/>
<path d="M940 2763 c-31 -12 -50 -37 -75 -103 -25 -65 -72 -142 -126 -204 -40
-47 -146 -117 -220 -146 -125 -48 -114 2 -115 -534 -2 -543 -9 -505 104 -550
179 -70 315 -212 372 -389 8 -24 23 -45 43 -57 30 -19 73 -19 1299 -17 l1267
2 22 22 c12 12 34 53 49 92 36 91 108 191 178 247 51 40 163 101 218 118 12 4
30 16 40 27 18 20 19 45 19 496 l0 475 -33 29 c-18 16 -39 29 -48 29 -21 0
-132 56 -173 87 -91 70 -170 176 -206 278 -10 28 -31 62 -46 78 l-29 27 -1263
-1 c-694 0 -1269 -3 -1277 -6z m2467 -255 c73 -150 215 -289 361 -357 l52 -25
-2 -360 -3 -360 -50 -26 c-168 -86 -287 -206 -367 -371 l-22 -46 -1163 0
-1163 0 -41 76 c-77 140 -193 256 -331 329 -35 19 -66 39 -69 45 -4 7 -6 169
-5 362 l1 350 55 28 c165 87 301 226 365 375 l19 42 1166 0 1166 0 31 -62z"/>
<path d="M2062 2350 c-141 -37 -270 -130 -355 -254 -22 -33 -40 -62 -39 -64 1
-1 -4 -15 -11 -30 -28 -55 -48 -165 -46 -251 8 -341 296 -605 639 -585 254 15
482 205 546 455 15 58 20 179 11 239 -14 88 -59 194 -116 270 -139 187 -402
279 -629 220z m253 -195 c91 -24 193 -101 240 -181 59 -100 71 -226 34 -336
-114 -341 -584 -367 -740 -42 -127 266 75 578 369 569 37 -1 81 -5 97 -10z"/>
<path d="M1040 1898 c-143 -73 -88 -286 73 -280 83 4 141 67 140 153 -2 110
-114 177 -213 127z m91 -88 c15 0 28 -43 18 -62 -18 -35 -46 -40 -75 -15 -24
21 -25 26 -14 48 16 30 31 40 48 34 8 -3 18 -5 23 -5z"/>
<path d="M3254 1901 c-139 -63 -100 -270 54 -285 89 -9 172 85 157 176 -8 47
-72 118 -107 119 -13 0 -32 2 -43 4 -11 2 -38 -4 -61 -14z m106 -112 c13 -24
-6 -66 -32 -73 -13 -3 -29 4 -44 20 -21 20 -23 27 -13 46 7 13 16 26 21 29 16
11 58 -3 68 -22z"/>
</g>
</svg>
